<?xml version="1.0" encoding="UTF-8" standalone="no"?>
<!-- Created with Inkscape (http://www.inkscape.org/) -->

<svg
   width="565"
   height="565"
   viewBox="0 0 149.49062 149.48974"
   version="1.1"
   id="svg1"
   xml:space="preserve"
   inkscape:version="1.3.2 (091e20e, 2023-11-25, custom)"
   sodipodi:docname="Logo.svg"
   xmlns:inkscape="http://www.inkscape.org/namespaces/inkscape"
   xmlns:sodipodi="http://sodipodi.sourceforge.net/DTD/sodipodi-0.dtd"
   xmlns="http://www.w3.org/2000/svg"
   xmlns:svg="http://www.w3.org/2000/svg"><sodipodi:namedview
     id="namedview1"
     pagecolor="#ffffff"
     bordercolor="#660000"
     borderopacity="0.24705882"
     inkscape:showpageshadow="2"
     inkscape:pageopacity="0.0"
     inkscape:pagecheckerboard="0"
     inkscape:deskcolor="#0e0025"
     inkscape:document-units="px"
     inkscape:zoom="0.64522939"
     inkscape:cx="75.941984"
     inkscape:cy="364.21156"
     inkscape:window-width="1366"
     inkscape:window-height="745"
     inkscape:window-x="-8"
     inkscape:window-y="-8"
     inkscape:window-maximized="1"
     inkscape:current-layer="layer3"
     showgrid="false" /><defs
     id="defs1"><inkscape:path-effect
       effect="spiro"
       id="path-effect462"
       is_visible="true"
       lpeversion="1" /><inkscape:path-effect
       effect="spiro"
       id="path-effect460"
       is_visible="true"
       lpeversion="1" /><inkscape:path-effect
       effect="spiro"
       id="path-effect458"
       is_visible="true"
       lpeversion="1" /><inkscape:path-effect
       effect="spiro"
       id="path-effect9"
       is_visible="true"
       lpeversion="1" /><inkscape:path-effect
       effect="spiro"
       id="path-effect7"
       is_visible="true"
       lpeversion="1" /><inkscape:path-effect
       effect="spiro"
       id="path-effect5"
       is_visible="true"
       lpeversion="1" /><filter
       style="color-interpolation-filters:sRGB"
       inkscape:label="Drop Shadow"
       id="filter10"
       x="-0.13300569"
       y="-0.16019753"
       width="1.3856661"
       height="1.28588"><feFlood
         result="flood"
         in="SourceGraphic"
         flood-opacity="1.000000"
         flood-color="rgb(0,0,0)"
         id="feFlood9" /><feGaussianBlur
         result="blur"
         in="SourceGraphic"
         stdDeviation="4.400000"
         id="feGaussianBlur9" /><feOffset
         result="offset"
         in="blur"
         dx="9.500000"
         dy="-2.900000"
         id="feOffset9" /><feComposite
         result="comp1"
         operator="in"
         in="flood"
         in2="offset"
         id="feComposite9" /><feComposite
         result="comp2"
         operator="over"
         in="SourceGraphic"
         in2="comp1"
         id="feComposite10" /></filter><filter
       style="color-interpolation-filters:sRGB"
       inkscape:label="Drop Shadow"
       id="filter12"
       x="-0.13300569"
       y="-0.16019753"
       width="1.3856661"
       height="1.28588"><feFlood
         result="flood"
         in="SourceGraphic"
         flood-opacity="1.000000"
         flood-color="rgb(0,0,0)"
         id="feFlood10" /><feGaussianBlur
         result="blur"
         in="SourceGraphic"
         stdDeviation="4.400000"
         id="feGaussianBlur10" /><feOffset
         result="offset"
         in="blur"
         dx="9.500000"
         dy="-2.900000"
         id="feOffset10" /><feComposite
         result="comp1"
         operator="in"
         in="flood"
         in2="offset"
         id="feComposite11" /><feComposite
         result="comp2"
         operator="over"
         in="SourceGraphic"
         in2="comp1"
         id="feComposite12" /></filter><filter
       style="color-interpolation-filters:sRGB"
       inkscape:label="Drop Shadow"
       id="filter14"
       x="-0.13300569"
       y="-0.16019753"
       width="1.3856661"
       height="1.28588"><feFlood
         result="flood"
         in="SourceGraphic"
         flood-opacity="1.000000"
         flood-color="rgb(0,0,0)"
         id="feFlood12" /><feGaussianBlur
         result="blur"
         in="SourceGraphic"
         stdDeviation="4.400000"
         id="feGaussianBlur12" /><feOffset
         result="offset"
         in="blur"
         dx="9.500000"
         dy="-2.900000"
         id="feOffset12" /><feComposite
         result="comp1"
         operator="in"
         in="flood"
         in2="offset"
         id="feComposite13" /><feComposite
         result="comp2"
         operator="over"
         in="SourceGraphic"
         in2="comp1"
         id="feComposite14" /></filter><filter
       style="color-interpolation-filters:sRGB"
       inkscape:label="Drop Shadow"
       id="filter16"
       x="-0.13300569"
       y="-0.16019753"
       width="1.3856661"
       height="1.28588"><feFlood
         result="flood"
         in="SourceGraphic"
         flood-opacity="1.000000"
         flood-color="rgb(0,0,0)"
         id="feFlood14" /><feGaussianBlur
         result="blur"
         in="SourceGraphic"
         stdDeviation="4.400000"
         id="feGaussianBlur14" /><feOffset
         result="offset"
         in="blur"
         dx="9.500000"
         dy="-2.900000"
         id="feOffset14" /><feComposite
         result="comp1"
         operator="in"
         in="flood"
         in2="offset"
         id="feComposite15" /><feComposite
         result="comp2"
         operator="over"
         in="SourceGraphic"
         in2="comp1"
         id="feComposite16" /></filter><filter
       style="color-interpolation-filters:sRGB"
       inkscape:label="Drop Shadow"
       id="filter18"
       x="-0.26434934"
       y="-1.2865984"
       width="1.766467"
       height="3.2960372"><feFlood
         result="flood"
         in="SourceGraphic"
         flood-opacity="1.000000"
         flood-color="rgb(0,0,0)"
         id="feFlood16" /><feGaussianBlur
         result="blur"
         in="SourceGraphic"
         stdDeviation="4.400000"
         id="feGaussianBlur16" /><feOffset
         result="offset"
         in="blur"
         dx="9.500000"
         dy="-2.900000"
         id="feOffset16" /><feComposite
         result="comp1"
         operator="in"
         in="flood"
         in2="offset"
         id="feComposite17" /><feComposite
         result="comp2"
         operator="over"
         in="SourceGraphic"
         in2="comp1"
         id="feComposite18" /></filter><filter
       style="color-interpolation-filters:sRGB"
       inkscape:label="Drop Shadow"
       id="filter20"
       x="-0.43918484"
       y="-0.38992792"
       width="2.2731643"
       height="1.6958956"><feFlood
         result="flood"
         in="SourceGraphic"
         flood-opacity="1.000000"
         flood-color="rgb(0,0,0)"
         id="feFlood18" /><feGaussianBlur
         result="blur"
         in="SourceGraphic"
         stdDeviation="4.400000"
         id="feGaussianBlur18" /><feOffset
         result="offset"
         in="blur"
         dx="9.500000"
         dy="-2.900000"
         id="feOffset18" /><feComposite
         result="comp1"
         operator="in"
         in="flood"
         in2="offset"
         id="feComposite19" /><feComposite
         result="comp2"
         operator="over"
         in="SourceGraphic"
         in2="comp1"
         id="feComposite20" /></filter><filter
       style="color-interpolation-filters:sRGB"
       inkscape:label="Drop Shadow"
       id="filter22"
       x="-0.52305633"
       y="-0.46440515"
       width="2.5163598"
       height="1.8288037"><feFlood
         result="flood"
         in="SourceGraphic"
         flood-opacity="1.000000"
         flood-color="rgb(0,0,0)"
         id="feFlood20" /><feGaussianBlur
         result="blur"
         in="SourceGraphic"
         stdDeviation="4.400000"
         id="feGaussianBlur20" /><feOffset
         result="offset"
         in="blur"
         dx="9.500000"
         dy="-2.900000"
         id="feOffset20" /><feComposite
         result="comp1"
         operator="in"
         in="flood"
         in2="offset"
         id="feComposite21" /><feComposite
         result="comp2"
         operator="over"
         in="SourceGraphic"
         in2="comp1"
         id="feComposite22" /></filter><filter
       style="color-interpolation-filters:sRGB"
       inkscape:label="Drop Shadow"
       id="filter24"
       x="-0.6168887"
       y="-0.54772758"
       width="2.7884381"
       height="1.9774965"><feFlood
         result="flood"
         in="SourceGraphic"
         flood-opacity="1.000000"
         flood-color="rgb(0,0,0)"
         id="feFlood22" /><feGaussianBlur
         result="blur"
         in="SourceGraphic"
         stdDeviation="4.400000"
         id="feGaussianBlur22" /><feOffset
         result="offset"
         in="blur"
         dx="9.500000"
         dy="-2.900000"
         id="feOffset22" /><feComposite
         result="comp1"
         operator="in"
         in="flood"
         in2="offset"
         id="feComposite23" /><feComposite
         result="comp2"
         operator="over"
         in="SourceGraphic"
         in2="comp1"
         id="feComposite24" /></filter><filter
       style="color-interpolation-filters:sRGB"
       inkscape:label="Drop Shadow"
       id="filter26"
       x="-0.73394656"
       y="-0.65167415"
       width="3.1278615"
       height="2.1629939"><feFlood
         result="flood"
         in="SourceGraphic"
         flood-opacity="1.000000"
         flood-color="rgb(0,0,0)"
         id="feFlood24" /><feGaussianBlur
         result="blur"
         in="SourceGraphic"
         stdDeviation="4.400000"
         id="feGaussianBlur24" /><feOffset
         result="offset"
         in="blur"
         dx="9.500000"
         dy="-2.900000"
         id="feOffset24" /><feComposite
         result="comp1"
         operator="in"
         in="flood"
         in2="offset"
         id="feComposite25" /><feComposite
         result="comp2"
         operator="over"
         in="SourceGraphic"
         in2="comp1"
         id="feComposite26" /></filter><filter
       style="color-interpolation-filters:sRGB"
       inkscape:label="Drop Shadow"
       id="filter28"
       x="-1.5938431"
       y="-372.50519"
       width="5.5695648"
       height="668.05341"><feFlood
         result="flood"
         in="SourceGraphic"
         flood-opacity="1.000000"
         flood-color="rgb(0,0,0)"
         id="feFlood26" /><feGaussianBlur
         result="blur"
         in="SourceGraphic"
         stdDeviation="4.400000"
         id="feGaussianBlur26" /><feOffset
         result="offset"
         in="blur"
         dx="9.500000"
         dy="-2.900000"
         id="feOffset26" /><feComposite
         result="comp1"
         operator="in"
         in="flood"
         in2="offset"
         id="feComposite27" /><feComposite
         result="comp2"
         operator="over"
         in="SourceGraphic"
         in2="comp1"
         id="feComposite28" /></filter><filter
       style="color-interpolation-filters:sRGB"
       inkscape:label="Drop Shadow"
       id="filter30"
       x="-0.83767259"
       y="-745.01038"
       width="3.4016161"
       height="1335.1068"><feFlood
         result="flood"
         in="SourceGraphic"
         flood-opacity="1.000000"
         flood-color="rgb(0,0,0)"
         id="feFlood28" /><feGaussianBlur
         result="blur"
         in="SourceGraphic"
         stdDeviation="4.400000"
         id="feGaussianBlur28" /><feOffset
         result="offset"
         in="blur"
         dx="9.500000"
         dy="-2.900000"
         id="feOffset28" /><feComposite
         result="comp1"
         operator="in"
         in="flood"
         in2="offset"
         id="feComposite29" /><feComposite
         result="comp2"
         operator="over"
         in="SourceGraphic"
         in2="comp1"
         id="feComposite30" /></filter><filter
       style="color-interpolation-filters:sRGB"
       inkscape:label="Drop Shadow"
       id="filter32"
       x="-1.5938431"
       y="-372.50519"
       width="5.5695648"
       height="668.05341"><feFlood
         result="flood"
         in="SourceGraphic"
         flood-opacity="1.000000"
         flood-color="rgb(0,0,0)"
         id="feFlood30" /><feGaussianBlur
         result="blur"
         in="SourceGraphic"
         stdDeviation="4.400000"
         id="feGaussianBlur30" /><feOffset
         result="offset"
         in="blur"
         dx="9.500000"
         dy="-2.900000"
         id="feOffset30" /><feComposite
         result="comp1"
         operator="in"
         in="flood"
         in2="offset"
         id="feComposite31" /><feComposite
         result="comp2"
         operator="over"
         in="SourceGraphic"
         in2="comp1"
         id="feComposite32" /></filter><filter
       style="color-interpolation-filters:sRGB"
       inkscape:label="Drop Shadow"
       id="filter425"
       x="-0.13300569"
       y="-0.17328946"
       width="1.3541781"
       height="1.2989719"><feFlood
         result="flood"
         in="SourceGraphic"
         flood-opacity="1.000000"
         flood-color="rgb(0,0,0)"
         id="feFlood424" /><feGaussianBlur
         result="blur"
         in="SourceGraphic"
         stdDeviation="4.400000"
         id="feGaussianBlur424" /><feOffset
         result="offset"
         in="blur"
         dx="7.000000"
         dy="-4.000000"
         id="feOffset424" /><feComposite
         result="comp1"
         operator="in"
         in="flood"
         in2="offset"
         id="feComposite424" /><feComposite
         result="comp2"
         operator="over"
         in="SourceGraphic"
         in2="comp1"
         id="feComposite425" /></filter><filter
       style="color-interpolation-filters:sRGB"
       inkscape:label="Drop Shadow"
       id="filter427"
       x="-0.13300569"
       y="-0.17328946"
       width="1.3541781"
       height="1.2989719"><feFlood
         result="flood"
         in="SourceGraphic"
         flood-opacity="1.000000"
         flood-color="rgb(0,0,0)"
         id="feFlood425" /><feGaussianBlur
         result="blur"
         in="SourceGraphic"
         stdDeviation="4.400000"
         id="feGaussianBlur425" /><feOffset
         result="offset"
         in="blur"
         dx="7.000000"
         dy="-4.000000"
         id="feOffset425" /><feComposite
         result="comp1"
         operator="in"
         in="flood"
         in2="offset"
         id="feComposite426" /><feComposite
         result="comp2"
         operator="over"
         in="SourceGraphic"
         in2="comp1"
         id="feComposite427" /></filter><filter
       style="color-interpolation-filters:sRGB"
       inkscape:label="Drop Shadow"
       id="filter429"
       x="-0.13300569"
       y="-0.17328946"
       width="1.3541781"
       height="1.2989719"><feFlood
         result="flood"
         in="SourceGraphic"
         flood-opacity="1.000000"
         flood-color="rgb(0,0,0)"
         id="feFlood427" /><feGaussianBlur
         result="blur"
         in="SourceGraphic"
         stdDeviation="4.400000"
         id="feGaussianBlur427" /><feOffset
         result="offset"
         in="blur"
         dx="7.000000"
         dy="-4.000000"
         id="feOffset427" /><feComposite
         result="comp1"
         operator="in"
         in="flood"
         in2="offset"
         id="feComposite428" /><feComposite
         result="comp2"
         operator="over"
         in="SourceGraphic"
         in2="comp1"
         id="feComposite429" /></filter><filter
       style="color-interpolation-filters:sRGB"
       inkscape:label="Drop Shadow"
       id="filter431"
       x="-0.13300569"
       y="-0.17328946"
       width="1.3541781"
       height="1.2989719"><feFlood
         result="flood"
         in="SourceGraphic"
         flood-opacity="1.000000"
         flood-color="rgb(0,0,0)"
         id="feFlood429" /><feGaussianBlur
         result="blur"
         in="SourceGraphic"
         stdDeviation="4.400000"
         id="feGaussianBlur429" /><feOffset
         result="offset"
         in="blur"
         dx="7.000000"
         dy="-4.000000"
         id="feOffset429" /><feComposite
         result="comp1"
         operator="in"
         in="flood"
         in2="offset"
         id="feComposite430" /><feComposite
         result="comp2"
         operator="over"
         in="SourceGraphic"
         in2="comp1"
         id="feComposite431" /></filter><filter
       style="color-interpolation-filters:sRGB"
       inkscape:label="Drop Shadow"
       id="filter433"
       x="-0.26434934"
       y="-1.391728"
       width="1.7038964"
       height="3.4011667"><feFlood
         result="flood"
         in="SourceGraphic"
         flood-opacity="1.000000"
         flood-color="rgb(0,0,0)"
         id="feFlood431" /><feGaussianBlur
         result="blur"
         in="SourceGraphic"
         stdDeviation="4.400000"
         id="feGaussianBlur431" /><feOffset
         result="offset"
         in="blur"
         dx="7.000000"
         dy="-4.000000"
         id="feOffset431" /><feComposite
         result="comp1"
         operator="in"
         in="flood"
         in2="offset"
         id="feComposite432" /><feComposite
         result="comp2"
         operator="over"
         in="SourceGraphic"
         in2="comp1"
         id="feComposite433" /></filter><filter
       style="color-interpolation-filters:sRGB"
       inkscape:label="Drop Shadow"
       id="filter435"
       x="-0.43918484"
       y="-0.42177492"
       width="2.169271"
       height="1.7277426"><feFlood
         result="flood"
         in="SourceGraphic"
         flood-opacity="1.000000"
         flood-color="rgb(0,0,0)"
         id="feFlood433" /><feGaussianBlur
         result="blur"
         in="SourceGraphic"
         stdDeviation="4.400000"
         id="feGaussianBlur433" /><feOffset
         result="offset"
         in="blur"
         dx="7.000000"
         dy="-4.000000"
         id="feOffset433" /><feComposite
         result="comp1"
         operator="in"
         in="flood"
         in2="offset"
         id="feComposite434" /><feComposite
         result="comp2"
         operator="over"
         in="SourceGraphic"
         in2="comp1"
         id="feComposite435" /></filter><filter
       style="color-interpolation-filters:sRGB"
       inkscape:label="Drop Shadow"
       id="filter437"
       x="-0.52305633"
       y="-0.50233871"
       width="2.3926105"
       height="1.8667372"><feFlood
         result="flood"
         in="SourceGraphic"
         flood-opacity="1.000000"
         flood-color="rgb(0,0,0)"
         id="feFlood435" /><feGaussianBlur
         result="blur"
         in="SourceGraphic"
         stdDeviation="4.400000"
         id="feGaussianBlur435" /><feOffset
         result="offset"
         in="blur"
         dx="7.000000"
         dy="-4.000000"
         id="feOffset435" /><feComposite
         result="comp1"
         operator="in"
         in="flood"
         in2="offset"
         id="feComposite436" /><feComposite
         result="comp2"
         operator="over"
         in="SourceGraphic"
         in2="comp1"
         id="feComposite437" /></filter><filter
       style="color-interpolation-filters:sRGB"
       inkscape:label="Drop Shadow"
       id="filter439"
       x="-0.6168887"
       y="-0.59247059"
       width="2.6424749"
       height="2.0222394"><feFlood
         result="flood"
         in="SourceGraphic"
         flood-opacity="1.000000"
         flood-color="rgb(0,0,0)"
         id="feFlood437" /><feGaussianBlur
         result="blur"
         in="SourceGraphic"
         stdDeviation="4.400000"
         id="feGaussianBlur437" /><feOffset
         result="offset"
         in="blur"
         dx="7.000000"
         dy="-4.000000"
         id="feOffset437" /><feComposite
         result="comp1"
         operator="in"
         in="flood"
         in2="offset"
         id="feComposite438" /><feComposite
         result="comp2"
         operator="over"
         in="SourceGraphic"
         in2="comp1"
         id="feComposite439" /></filter><filter
       style="color-interpolation-filters:sRGB"
       inkscape:label="Drop Shadow"
       id="filter441"
       x="-0.73394656"
       y="-0.70491195"
       width="2.9541857"
       height="2.2162318"><feFlood
         result="flood"
         in="SourceGraphic"
         flood-opacity="1.000000"
         flood-color="rgb(0,0,0)"
         id="feFlood439" /><feGaussianBlur
         result="blur"
         in="SourceGraphic"
         stdDeviation="4.400000"
         id="feGaussianBlur439" /><feOffset
         result="offset"
         in="blur"
         dx="7.000000"
         dy="-4.000000"
         id="feOffset439" /><feComposite
         result="comp1"
         operator="in"
         in="flood"
         in2="offset"
         id="feComposite440" /><feComposite
         result="comp2"
         operator="over"
         in="SourceGraphic"
         in2="comp1"
         id="feComposite441" /></filter><filter
       style="color-interpolation-filters:sRGB"
       inkscape:label="Drop Shadow"
       id="filter443"
       x="-1.5938431"
       y="-402.0751"
       width="5.2059126"
       height="697.62329"><feFlood
         result="flood"
         in="SourceGraphic"
         flood-opacity="1.000000"
         flood-color="rgb(0,0,0)"
         id="feFlood441" /><feGaussianBlur
         result="blur"
         in="SourceGraphic"
         stdDeviation="4.400000"
         id="feGaussianBlur441" /><feOffset
         result="offset"
         in="blur"
         dx="7.000000"
         dy="-4.000000"
         id="feOffset441" /><feComposite
         result="comp1"
         operator="in"
         in="flood"
         in2="offset"
         id="feComposite442" /><feComposite
         result="comp2"
         operator="over"
         in="SourceGraphic"
         in2="comp1"
         id="feComposite443" /></filter><filter
       style="color-interpolation-filters:sRGB"
       inkscape:label="Drop Shadow"
       id="filter445"
       x="-0.83767259"
       y="-804.15015"
       width="3.2104921"
       height="1394.2466"><feFlood
         result="flood"
         in="SourceGraphic"
         flood-opacity="1.000000"
         flood-color="rgb(0,0,0)"
         id="feFlood443" /><feGaussianBlur
         result="blur"
         in="SourceGraphic"
         stdDeviation="4.400000"
         id="feGaussianBlur443" /><feOffset
         result="offset"
         in="blur"
         dx="7.000000"
         dy="-4.000000"
         id="feOffset443" /><feComposite
         result="comp1"
         operator="in"
         in="flood"
         in2="offset"
         id="feComposite444" /><feComposite
         result="comp2"
         operator="over"
         in="SourceGraphic"
         in2="comp1"
         id="feComposite445" /></filter><filter
       style="color-interpolation-filters:sRGB"
       inkscape:label="Drop Shadow"
       id="filter447"
       x="-1.5938431"
       y="-402.0751"
       width="5.2059126"
       height="697.62329"><feFlood
         result="flood"
         in="SourceGraphic"
         flood-opacity="1.000000"
         flood-color="rgb(0,0,0)"
         id="feFlood445" /><feGaussianBlur
         result="blur"
         in="SourceGraphic"
         stdDeviation="4.400000"
         id="feGaussianBlur445" /><feOffset
         result="offset"
         in="blur"
         dx="7.000000"
         dy="-4.000000"
         id="feOffset445" /><feComposite
         result="comp1"
         operator="in"
         in="flood"
         in2="offset"
         id="feComposite446" /><feComposite
         result="comp2"
         operator="over"
         in="SourceGraphic"
         in2="comp1"
         id="feComposite447" /></filter></defs><g
     inkscape:label="fondo"
     inkscape:groupmode="layer"
     id="layer1"
     style="display:none;opacity:0.481"
     transform="rotate(27.477447,142.875,142.875)"
     sodipodi:insensitive="true" /><g
     inkscape:groupmode="layer"
     id="layer2"
     inkscape:label="Lienzo"><rect
       style="display:inline;opacity:0.99;fill:#085fff;fill-opacity:1;stroke:#1a1a1a;stroke-width:0;stroke-linecap:round;stroke-linejoin:round;stroke-opacity:0;paint-order:markers stroke fill"
       id="rect447"
       width="90.388161"
       height="95.620911"
       x="-40.593239"
       y="61.684868"
       transform="matrix(0.75712502,-0.65327001,0.65082139,0.75923087,0,0)"
       ry="6.2577429"
       rx="6.1028652" /><rect
       style="opacity:0.99;fill:#ff5200;fill-opacity:0.992157;stroke:#1a1a1a;stroke-width:0;stroke-linecap:round;stroke-linejoin:round;stroke-opacity:0;paint-order:markers stroke fill"
       id="rect448"
       width="90.388161"
       height="95.620911"
       x="-37.585838"
       y="58.186234"
       transform="matrix(0.75712502,-0.65327001,0.65082139,0.75923087,0,0)"
       ry="6.2577429"
       rx="6.1028652"
       inkscape:label="rect2" /><rect
       style="opacity:0.99;fill:#085fff;fill-opacity:1;stroke:#1a1a1a;stroke-width:0;stroke-linecap:round;stroke-linejoin:round;stroke-opacity:0;paint-order:markers stroke fill"
       id="rect449"
       width="90.388161"
       height="95.620911"
       x="-34.187027"
       y="54.232277"
       transform="matrix(0.75712501,-0.65327002,0.65082139,0.75923087,0,0)"
       ry="6.2577429"
       rx="6.1028652"
       inkscape:label="rect3" /><rect
       style="opacity:0.99;fill:#ff5200;fill-opacity:1;stroke:#1a1a1a;stroke-width:0;stroke-linecap:round;stroke-linejoin:round;stroke-opacity:0;paint-order:markers stroke fill"
       id="rect450"
       width="90.479843"
       height="95.525009"
       x="31.64101"
       y="25.262108"
       transform="matrix(0.99999995,-3.1718371e-4,-0.00526997,0.99998611,0,0)"
       ry="6.2951717"
       rx="6.1385918"
       inkscape:label="rect4" /></g><g
     inkscape:groupmode="layer"
     id="layer3"
     inkscape:label="letras"><g
       id="text451"
       style="font-weight:300;font-size:15.2068px;font-family:'Arista Pro Alternate';-inkscape-font-specification:'Arista Pro Alternate, Light';opacity:0.99;fill:#ffffff;stroke:#1a1a1a;stroke-width:0.00464371;stroke-linecap:round;stroke-linejoin:round;stroke-opacity:0.921053;paint-order:markers stroke fill"
       transform="matrix(0.79817077,-0.60768593,0.58128051,0.81030781,-63.222817,-35.171332)"
       aria-label="URBLift"><g
         id="path1"><path
           style="color:#000000;-inkscape-font-specification:'Arista Pro Alternate, Light';fill:#1a1a1a;fill-opacity:0.921053;stroke:none;stroke-linecap:butt;stroke-linejoin:miter;stroke-opacity:1;-inkscape-stroke:none"
           d="m 43.929687,182.10352 c -0.08448,0.01 -0.160873,0.0373 -0.230468,0.082 l -0.04492,0.0371 c -0.05951,0.0595 -0.107804,0.11812 -0.142578,0.17773 -0.0299,0.0598 -0.04492,0.13238 -0.04492,0.2168 v 8.76172 c 0,0.0695 0.01127,0.12693 0.03125,0.17187 l 0.02148,0.0527 c 5.08e-4,0.0102 0.006,0.0197 0.01563,0.0293 0.04473,0.0745 0.103216,0.13584 0.177735,0.18555 0.07462,0.0448 0.159487,0.0684 0.253906,0.0684 h 3.802734 c 0.376505,0 0.727679,-0.0731 1.054688,-0.2168 0.331911,-0.14366 0.621426,-0.33822 0.86914,-0.58594 0.247706,-0.25266 0.44423,-0.54504 0.587891,-0.87695 0.143681,-0.33195 0.214844,-0.68599 0.214844,-1.0625 0,-0.48051 -0.108175,-0.92004 -0.326172,-1.31641 -0.217516,-0.39548 -0.512362,-0.71827 -0.882813,-0.9707 0.311051,-0.2375 0.556446,-0.52903 0.734375,-0.875 0.178374,-0.35179 0.267578,-0.73907 0.267578,-1.16015 0,-0.36166 -0.07027,-0.71287 -0.208984,-1.05469 -0.133755,-0.34677 -0.318789,-0.6391 -0.556641,-0.87696 -0.237812,-0.24277 -0.514962,-0.43355 -0.832031,-0.57226 -0.31711,-0.14369 -0.657865,-0.21484 -1.019531,-0.21484 z m 0,0.004 h 3.742188 c 0.361052,0 0.701073,0.0714 1.017578,0.21485 0.316548,0.13848 0.592679,0.32991 0.830078,0.57226 0.237362,0.23736 0.42309,0.52876 0.556641,0.875 0.138496,0.3413 0.207031,0.69167 0.207031,1.05274 0,0.42043 -0.08954,0.80707 -0.267578,1.1582 -0.178051,0.34621 -0.422781,0.63759 -0.734375,0.875 a 0.00232209,0.00232209 0 0 0 0,0.002 0.00232209,0.00232209 0 0 0 0.002,0.002 c 0.370968,0.25227 0.665176,0.57501 0.882813,0.97071 0.217614,0.39566 0.326172,0.83464 0.326171,1.31445 0,0.37592 -0.07142,0.72919 -0.214843,1.06055 -0.143446,0.33141 -0.340583,0.62274 -0.587891,0.875 -0.247298,0.2473 -0.535782,0.44249 -0.867187,0.58594 -0.326408,0.14342 -0.67682,0.21484 -1.052735,0.21484 h -3.802734 c -0.09369,0 -0.176119,-0.0221 -0.25,-0.0664 -0.07399,-0.0494 -0.13336,-0.10966 -0.177735,-0.18359 -0.0096,-0.01 -0.01563,-0.0201 -0.01563,-0.0293 l -0.02148,-0.0527 c -0.01962,-0.0441 -0.0293,-0.10082 -0.0293,-0.16992 v -8.76172 c 0,-0.0839 0.01346,-0.15583 0.04297,-0.21485 0.0343,-0.0588 0.08191,-0.11689 0.140625,-0.17578 l 0.04492,-0.0371 c 0.06901,-0.0443 0.144691,-0.0721 0.228515,-0.082 z m -4.863281,0.002 c -0.480457,0 -0.92959,0.0921 -1.345703,0.2754 -0.411127,0.17832 -0.769055,0.42711 -1.076172,0.74414 -0.302183,0.31209 -0.539536,0.68809 -0.71289,1.1289 -0.173359,0.44083 -0.261719,0.89951 -0.261719,1.375 v 5.73242 c 0,0.14902 0.05101,0.27456 0.15039,0.37891 0.10434,0.0994 0.22896,0.15039 0.373047,0.15039 0.144088,0 0.260093,-0.0509 0.34961,-0.15039 0.08946,-0.10437 0.134765,-0.22994 0.134765,-0.37891 l 0.02148,-3.39453 c 0.03291,0.0384 0.06534,0.0827 0.09375,0.13477 0.03474,0.0496 0.07157,0.0922 0.111328,0.12695 l 3.646484,3.49805 c 0.109264,0.10926 0.234766,0.16406 0.378906,0.16406 0.139184,0 0.26,-0.0539 0.359375,-0.1582 0.09935,-0.10431 0.148438,-0.2232 0.148438,-0.35742 0,-0.1342 -0.0481,-0.24644 -0.142578,-0.33594 l -2.15625,-2.07617 c 0.45336,-0.0204 0.885709,-0.11362 1.294922,-0.28125 0.411101,-0.16841 0.771005,-0.39629 1.078125,-0.6836 0.31208,-0.29226 0.558914,-0.63783 0.742187,-1.03906 0.183302,-0.40128 0.275391,-0.84467 0.275391,-1.33008 0,-0.4755 -0.09212,-0.93416 -0.275391,-1.375 -0.178312,-0.44082 -0.425144,-0.81681 -0.742187,-1.1289 -0.312071,-0.31703 -0.678583,-0.56583 -1.09961,-0.74414 -0.421053,-0.18329 -0.870192,-0.2754 -1.345703,-0.2754 z m 0,0.006 c 0.474914,0 0.923283,0.0904 1.34375,0.27344 0.420496,0.1781 0.786012,0.4256 1.097656,0.74219 0.316574,0.31163 0.564091,0.68861 0.742188,1.12891 0.183041,0.44029 0.273437,0.89813 0.273437,1.37304 0,0.48482 -0.09043,0.92749 -0.273437,1.32813 -0.183036,0.4007 -0.430551,0.74526 -0.742188,1.03711 -0.306695,0.2869 -0.665552,0.51538 -1.076171,0.68359 -0.410612,0.16821 -0.843672,0.26146 -1.298829,0.28125 a 0.00232209,0.00232209 0 0 0 -0.002,0.002 0.00232209,0.00232209 0 0 0 0,0.002 l 0.002,0.002 2.160157,2.07812 c 0.09363,0.0887 0.140625,0.19893 0.140625,0.33204 0,0.13308 -0.04978,0.25187 -0.148438,0.35546 -0.09863,0.10356 -0.217446,0.1543 -0.355469,0.1543 -0.142966,0 -0.268411,-0.0536 -0.376953,-0.16211 l -3.644531,-3.49804 c -0.03944,-0.0345 -0.07677,-0.0756 -0.111328,-0.125 -0.02977,-0.0546 -0.06287,-0.1009 -0.09766,-0.14063 a 0.00232209,0.00232209 0 0 0 -0.002,-0.002 0.00232209,0.00232209 0 0 0 -0.002,0.002 v 0.002 l -0.02148,3.40039 c 0,0.14804 -0.04407,0.27342 -0.132812,0.37696 -0.08869,0.0985 -0.204637,0.14648 -0.347657,0.14648 -0.143019,0 -0.265574,-0.0478 -0.36914,-0.14648 -0.09862,-0.10356 -0.148438,-0.22897 -0.148438,-0.37696 v -5.73242 c 0,-0.47492 0.08662,-0.93274 0.259766,-1.37304 0.173155,-0.44031 0.411159,-0.81728 0.71289,-1.12891 0.306699,-0.31659 0.663626,-0.5641 1.074219,-0.74219 0.415509,-0.18302 0.863883,-0.27344 1.34375,-0.27344 z m -11.292969,0.0176 c -0.144087,0 -0.265835,0.049 -0.365234,0.14844 -0.09943,0.0945 -0.150391,0.21529 -0.150391,0.35937 v 5.76172 c 0,0.46557 0.07693,0.91285 0.230469,1.34375 0.153548,0.43092 0.375716,0.81265 0.667969,1.14453 0.292272,0.32696 0.649294,0.58899 1.070312,0.78711 0.426055,0.19817 0.912236,0.29688 1.457032,0.29688 0.564585,0 1.069781,-0.0987 1.515625,-0.29688 0.445772,-0.20307 0.818912,-0.47173 1.121093,-0.80859 0.307111,-0.34178 0.54072,-0.73586 0.699219,-1.18164 0.163448,-0.45072 0.246094,-0.92465 0.246094,-1.41992 v -5.62696 c 0,-0.14411 -0.05382,-0.26492 -0.158203,-0.35937 -0.09939,-0.0994 -0.218265,-0.14844 -0.357422,-0.14844 -0.144087,0 -0.265835,0.049 -0.365234,0.14844 -0.09943,0.0945 -0.148438,0.21529 -0.148438,0.35937 v 5.59766 c 0,0.39577 -0.0619,0.75847 -0.185547,1.08984 -0.123655,0.3314 -0.299856,0.61901 -0.527344,0.86133 -0.222539,0.24233 -0.489195,0.43379 -0.800781,0.57227 v -0.002 c -0.306593,0.13351 -0.646597,0.20117 -1.017578,0.20117 -0.361083,0 -0.689636,-0.0648 -0.986328,-0.19336 -0.296735,-0.12859 -0.551036,-0.30574 -0.763672,-0.53321 -0.21264,-0.23242 -0.377383,-0.51052 -0.496094,-0.83203 -0.113759,-0.32643 -0.171875,-0.68248 -0.171875,-1.06836 v -5.69336 c 0,-0.14411 -0.05186,-0.26492 -0.15625,-0.35937 -0.09939,-0.0994 -0.218265,-0.14844 -0.357422,-0.14844 z m 0,0.004 c 0.138051,0 0.254897,0.0498 0.353516,0.14844 0.103517,0.0937 0.15625,0.21247 0.15625,0.35546 v 5.69336 c 0,0.38634 0.05598,0.74334 0.169922,1.07032 0.118896,0.32201 0.284977,0.59913 0.498047,0.83203 0.213074,0.22793 0.468344,0.40633 0.765625,0.53515 0.297323,0.12884 0.626647,0.19336 0.988281,0.19336 0.371538,0 0.712309,-0.0654 1.019531,-0.19922 0.31213,-0.13872 0.579763,-0.32947 0.802735,-0.57226 0.227923,-0.24279 0.403492,-0.53136 0.527343,-0.86328 0.12386,-0.33195 0.185547,-0.69555 0.185547,-1.0918 v -5.59766 c 0,-0.14301 0.04986,-0.26182 0.148438,-0.35546 0.09861,-0.0986 0.218309,-0.14844 0.361328,-0.14844 0.138051,0 0.256849,0.0498 0.355469,0.14844 0.103517,0.0937 0.154297,0.21247 0.154297,0.35546 v 5.62696 c 0,0.49476 -0.08088,0.96776 -0.244141,1.41797 -0.158308,0.44524 -0.390561,0.83835 -0.697266,1.17968 -0.301733,0.33636 -0.675842,0.60576 -1.121093,0.8086 -0.445179,0.19786 -0.94963,0.29687 -1.513672,0.29687 -0.544233,0 -1.029711,-0.099 -1.455078,-0.29687 -0.420503,-0.19788 -0.776516,-0.46064 -1.06836,-0.78711 -0.291861,-0.33144 -0.514607,-0.71218 -0.667969,-1.14258 -0.153365,-0.43041 -0.228515,-0.87674 -0.228515,-1.3418 v -5.76172 c 0,-0.14301 0.04791,-0.26182 0.146484,-0.35546 0.09861,-0.0986 0.220261,-0.14844 0.363281,-0.14844 z m 16.712891,0.99023 a 0.00232209,0.00232209 0 0 0 -0.002,0.002 v 7.73828 a 0.00232209,0.00232209 0 0 0 0.002,0.002 h 3.283203 c 0.228026,0 0.443229,-0.0464 0.646485,-0.14062 0.203189,-0.0942 0.381508,-0.2194 0.535156,-0.37305 0.153659,-0.15862 0.273162,-0.34066 0.357422,-0.54883 0.08922,-0.20819 0.132812,-0.42915 0.132812,-0.66211 0,-0.23295 -0.04359,-0.45391 -0.132812,-0.66211 -0.08426,-0.21312 -0.203754,-0.39801 -0.357422,-0.55664 -0.153651,-0.16356 -0.331939,-0.29254 -0.535156,-0.38672 -0.203256,-0.0942 -0.418459,-0.14258 -0.646485,-0.14258 h -0.117187 v -0.004 a 0.00232209,0.00232209 0 0 0 -0.002,-0.002 h -0.02344 c -0.01429,0.004 -0.04057,0.006 -0.08008,0.006 -0.13805,0 -0.256849,-0.0479 -0.355469,-0.14648 -0.09861,-0.0986 -0.148437,-0.22026 -0.148437,-0.36328 0,-0.13805 0.04982,-0.25685 0.148437,-0.35547 0.09862,-0.0986 0.217419,-0.14648 0.355469,-0.14648 h 0.125 c 0.22303,0 0.431655,-0.0398 0.625,-0.11915 0.198259,-0.0793 0.369894,-0.1893 0.513672,-0.32812 0.148711,-0.14375 0.265339,-0.30968 0.349609,-0.49805 0.08428,-0.19334 0.125,-0.39908 0.125,-0.61718 0,-0.23296 -0.0436,-0.45772 -0.132812,-0.67579 -0.08426,-0.21807 -0.200841,-0.39916 -0.34961,-0.54296 -0.14873,-0.14378 -0.324124,-0.25468 -0.527343,-0.33399 -0.198263,-0.0843 -0.409796,-0.13267 -0.632813,-0.14258 z m 0.002,0.006 h 3.154297 c 0.222495,0.01 0.433113,0.0566 0.630859,0.14063 0.202692,0.0791 0.377114,0.19065 0.525391,0.33398 0.14824,0.1433 0.265561,0.32348 0.349609,0.54102 0.08899,0.21753 0.132813,0.44146 0.132813,0.67383 0,0.2175 -0.04293,0.42247 -0.126953,0.61523 -0.08404,0.18784 -0.199359,0.35469 -0.347656,0.49805 -0.143329,0.13838 -0.313968,0.24706 -0.511719,0.32617 -0.192765,0.0791 -0.400567,0.11719 -0.623047,0.11719 h -0.125 c -0.139156,0 -0.259989,0.051 -0.359375,0.15039 -0.09939,0.0994 -0.148438,0.21827 -0.148438,0.35742 0,0.14409 0.04904,0.26583 0.148438,0.36523 0.09939,0.0994 0.220219,0.15039 0.359375,0.15039 0.03876,0 0.06448,-0.003 0.08008,-0.008 h 0.02148 v 0.004 a 0.00232209,0.00232209 0 0 0 0.002,0.004 h 0.11914 c 0.227386,0 0.441877,0.0467 0.644531,0.14063 0.202693,0.0939 0.379947,0.22162 0.533204,0.38476 0.153239,0.15819 0.271421,0.34406 0.355468,0.55664 0.08898,0.20762 0.134766,0.4278 0.134766,0.66016 0,0.23236 -0.04579,0.45255 -0.134766,0.66016 -0.08405,0.20764 -0.20222,0.39063 -0.355468,0.54883 -0.15326,0.15325 -0.330483,0.27714 -0.533204,0.37109 -0.202654,0.0939 -0.417145,0.14062 -0.644531,0.14062 h -3.28125 z m -5.363281,0.0312 c -0.336904,0 -0.651001,0.0645 -0.943359,0.19336 -0.287367,0.12387 -0.539803,0.29566 -0.757813,0.51367 -0.213086,0.21805 -0.382006,0.48281 -0.505859,0.79493 -0.123862,0.30717 -0.185547,0.62703 -0.185547,0.95898 0,0.33195 0.06167,0.6432 0.185547,0.93555 0.123859,0.29231 0.292798,0.54761 0.505859,0.76562 0.218004,0.21801 0.470459,0.39268 0.757813,0.52149 0.292352,0.12387 0.606466,0.18554 0.943359,0.18554 0.331959,0 0.645146,-0.0645 0.9375,-0.19336 0.292305,-0.12881 0.547615,-0.30347 0.765625,-0.52148 0.217633,-0.21763 0.387908,-0.472 0.511719,-0.76367 v -0.002 c 0.128324,-0.29679 0.193359,-0.61492 0.193359,-0.95117 0,-0.33195 -0.06454,-0.64984 -0.193359,-0.95703 -0.123859,-0.31212 -0.293665,-0.57596 -0.511719,-0.78906 -0.218015,-0.21306 -0.473318,-0.382 -0.765625,-0.50586 -0.292348,-0.12388 -0.605552,-0.18555 -0.9375,-0.18555 z m 0,0.006 c 0.33137,0 0.643781,0.0619 0.935547,0.18555 0.291808,0.12365 0.546077,0.29126 0.763672,0.5039 0.217557,0.21262 0.388071,0.47357 0.511718,0.78516 0.128588,0.30664 0.19336,0.62568 0.19336,0.95703 0,0.33632 -0.06478,0.65446 -0.19336,0.95117 -0.123643,0.2918 -0.294124,0.54609 -0.511718,0.76368 -0.2176,0.2176 -0.471862,0.39093 -0.763672,0.51953 -0.29176,0.12857 -0.604188,0.1914 -0.935547,0.1914 -0.336324,0 -0.649644,-0.0619 -0.941406,-0.18554 -0.286862,-0.12859 -0.538254,-0.29997 -0.75586,-0.51758 -0.21265,-0.2176 -0.382211,-0.47382 -0.505859,-0.76563 -0.12363,-0.29176 -0.183594,-0.60222 -0.183594,-0.93359 0,-0.33137 0.05995,-0.65039 0.183594,-0.95703 0.123653,-0.31161 0.293234,-0.57735 0.505859,-0.79492 0.2176,-0.2176 0.469011,-0.38808 0.75586,-0.51172 0.291756,-0.12857 0.605094,-0.19141 0.941406,-0.19141 z"
           id="path3" /><path
           style="color:#000000;-inkscape-font-specification:'Arista Pro Alternate, Light';stroke:none;stroke-linecap:butt;stroke-linejoin:miter;stroke-opacity:1;-inkscape-stroke:none"
           d="m 27.260436,182.63971 q 0,-0.21533 0.148504,-0.35641 0.148504,-0.1485 0.363835,-0.1485 0.207905,0 0.356409,0.1485 0.155929,0.14108 0.155929,0.35641 v 5.69513 q 0,0.57916 0.17078,1.06922 0.178205,0.48264 0.497488,0.83163 0.319283,0.34155 0.764795,0.53461 0.445512,0.19305 0.987551,0.19305 0.55689,0 1.017252,-0.20048 0.467787,-0.2079 0.801921,-0.57174 0.341559,-0.36383 0.527189,-0.86132 0.18563,-0.49749 0.18563,-1.0915 v -5.5986 q 0,-0.21533 0.148504,-0.35641 0.148504,-0.1485 0.363834,-0.1485 0.207906,0 0.35641,0.1485 0.155929,0.14108 0.155929,0.35641 v 5.6283 q 0,0.74252 -0.245032,1.41821 -0.237606,0.66827 -0.697968,1.18061 -0.452937,0.50491 -1.121205,0.80934 -0.668267,0.29701 -1.514739,0.29701 -0.816772,0 -1.455339,-0.29701 -0.631141,-0.297 -1.069228,-0.78707 -0.438086,-0.49749 -0.668268,-1.14348 -0.230181,-0.64599 -0.230181,-1.34396 z m 8.412746,2.99235 q 0,-0.71281 0.259882,-1.37366 0.259882,-0.66084 0.712819,-1.12863 0.460362,-0.47521 1.076653,-0.74252 0.623717,-0.27473 1.343961,-0.27473 0.712819,0 1.34396,0.27473 0.631142,0.26731 1.098929,0.74252 0.475213,0.46779 0.74252,1.12863 0.274732,0.66085 0.274732,1.37366 0,0.72767 -0.274732,1.32911 -0.274732,0.60145 -0.74252,1.03953 -0.460362,0.43066 -1.076653,0.68312 -0.616291,0.25246 -1.299409,0.28216 l 2.160732,2.07905 q 0.141078,0.13366 0.141078,0.33414 0,0.20048 -0.148504,0.35641 -0.148504,0.15592 -0.356409,0.15592 -0.215331,0 -0.378685,-0.16335 l -3.645771,-3.49727 q -0.0594,-0.052 -0.111378,-0.12623 -0.04455,-0.0817 -0.09653,-0.14107 l -0.02228,3.40074 q 0,0.22275 -0.133654,0.37868 -0.133653,0.1485 -0.348984,0.1485 -0.21533,0 -0.37126,-0.1485 -0.148504,-0.15593 -0.148504,-0.37868 z m 3.452716,2.39834 q 0.497489,0 0.935575,-0.19305 0.438087,-0.19306 0.764795,-0.51977 0.326709,-0.3267 0.512339,-0.76479 0.193055,-0.44551 0.193055,-0.95043 0,-0.49748 -0.193055,-0.95785 -0.18563,-0.46778 -0.512339,-0.78707 -0.326708,-0.31928 -0.764795,-0.50491 -0.438086,-0.18563 -0.935575,-0.18563 -0.504913,0 -0.942999,0.19305 -0.430662,0.18563 -0.75737,0.51234 -0.319284,0.32671 -0.504914,0.7945 -0.18563,0.46036 -0.18563,0.95785 0,0.49749 0.18563,0.93557 0.18563,0.43809 0.504914,0.7648 0.326708,0.32671 0.75737,0.51976 0.438086,0.18563 0.942999,0.18563 z m 4.841228,3.85368 q -0.141079,0 -0.252457,-0.0668 -0.111378,-0.0743 -0.178204,-0.18563 -0.01485,-0.0148 -0.01485,-0.0297 l -0.02228,-0.052 q -0.0297,-0.0668 -0.0297,-0.17078 v -8.76174 q 0,-0.12622 0.04455,-0.21533 0.05198,-0.0891 0.141079,-0.1782 l 0.04455,-0.0371 q 0.103953,-0.0668 0.230181,-0.0817 h 3.742299 q 0.542039,0 1.017251,0.21533 0.475213,0.2079 0.831622,0.57174 0.35641,0.35641 0.55689,0.87617 0.207905,0.51234 0.207905,1.05438 0,0.63114 -0.267307,1.15833 -0.267307,0.51976 -0.735094,0.87617 0.55689,0.37869 0.883598,0.9727 0.326709,0.59402 0.326709,1.31426 0,0.56432 -0.215331,1.0618 -0.21533,0.49749 -0.58659,0.87618 -0.37126,0.37126 -0.868748,0.58659 -0.490063,0.21533 -1.054378,0.21533 z m 3.074031,-4.99716 q 0,-0.2079 0.148504,-0.35641 0.148504,-0.1485 0.356409,-0.1485 h 0.126229 q 0.334133,0 0.623716,-0.1188 0.297008,-0.11881 0.512338,-0.32671 0.222756,-0.21533 0.348985,-0.49749 0.126228,-0.28958 0.126228,-0.61629 0,-0.34899 -0.133654,-0.67569 -0.126228,-0.32671 -0.348984,-0.54204 -0.222756,-0.21533 -0.527189,-0.33414 -0.297007,-0.12623 -0.631141,-0.14108 H 44.48689 v 7.73706 h 3.281936 q 0.341559,0 0.645992,-0.14108 0.304433,-0.14108 0.534614,-0.37126 0.230181,-0.23761 0.35641,-0.54947 0.133653,-0.31185 0.133653,-0.66084 0,-0.34898 -0.133653,-0.66084 -0.126229,-0.31928 -0.35641,-0.55689 -0.230181,-0.24503 -0.534614,-0.38611 -0.304433,-0.14108 -0.645992,-0.14108 h -0.118803 v -0.007 h -0.02228 q -0.02228,0.007 -0.08168,0.007 -0.207905,0 -0.356409,-0.1485 -0.148504,-0.14851 -0.148504,-0.36384 z"
           id="path4" /></g><g
         id="path2"><path
           style="color:#000000;-inkscape-font-specification:'Arista Pro Alternate, Light';fill:#1a1a1a;fill-opacity:0.921053;stroke:none;stroke-linecap:butt;stroke-linejoin:miter;stroke-opacity:1;-inkscape-stroke:none"
           d="m 65.0625,182.08789 c -0.307207,0 -0.59659,0.0588 -0.869141,0.17773 -0.272502,0.11892 -0.51455,0.28123 -0.722656,0.48438 -0.203155,0.20315 -0.366374,0.44039 -0.490234,0.71289 -0.118949,0.2676 -0.180609,0.55413 -0.185547,0.86133 a 0.00232209,0.00232209 0 0 0 0,0.002 v 2.5293 h -0.6875 c -0.139156,0 -0.259989,0.049 -0.359375,0.14844 -0.09444,0.0944 -0.140625,0.20955 -0.140625,0.34375 0,0.14406 0.04615,0.26295 0.140625,0.35742 0.0994,0.0944 0.220246,0.14258 0.359375,0.14258 h 0.6875 v 3.86523 c 0,0.17297 -0.03146,0.33796 -0.0957,0.49609 -0.06425,0.15815 -0.153931,0.29743 -0.267578,0.41602 -0.108676,0.11855 -0.242254,0.21206 -0.400391,0.28125 -0.158103,0.0692 -0.328857,0.10352 -0.511719,0.10352 -0.134198,0 -0.250228,0.0482 -0.349609,0.14257 -0.09441,0.0994 -0.142578,0.21542 -0.142578,0.34961 0,0.14406 0.04811,0.26491 0.142578,0.35938 0.09938,0.0944 0.215411,0.14062 0.349609,0.14062 0.317111,0 0.612201,-0.0616 0.884766,-0.18554 0.277469,-0.11892 0.517533,-0.28211 0.720703,-0.49024 0.20812,-0.20812 0.370411,-0.45104 0.484375,-0.72851 0.118927,-0.2775 0.177734,-0.57261 0.177734,-0.88477 v -3.86523 h 1.111328 c 0.144061,0 0.262953,-0.0481 0.357422,-0.14258 0.09943,-0.0945 0.150391,-0.21333 0.150391,-0.35742 0,-0.13423 -0.05099,-0.24933 -0.150391,-0.34375 -0.09425,-0.0985 -0.214003,-0.14844 -0.357422,-0.14844 h -1.111328 v -2.51563 c 0.0049,-0.16803 0.03927,-0.32922 0.103516,-0.48242 0.06919,-0.15321 0.16174,-0.28478 0.275391,-0.39844 0.113638,-0.11365 0.247198,-0.20335 0.40039,-0.26757 0.153147,-0.0692 0.318191,-0.10352 0.496094,-0.10352 0.144061,0 0.262952,-0.0481 0.357422,-0.14258 0.09937,-0.0994 0.15039,-0.21538 0.15039,-0.34961 0,-0.14408 -0.05096,-0.26491 -0.15039,-0.35937 -0.09446,-0.0994 -0.213334,-0.14844 -0.357422,-0.14844 z m 0,0.004 c 0.14302,0 0.259869,0.0499 0.353516,0.14843 0.09857,0.0936 0.148437,0.21245 0.148437,0.35547 0,0.13308 -0.0498,0.24903 -0.148437,0.34766 -0.09364,0.0936 -0.210469,0.13867 -0.353516,0.13867 -0.178505,0 -0.344286,0.036 -0.498047,0.10547 -0.153715,0.0644 -0.288277,0.1535 -0.402344,0.26758 -0.114055,0.11405 -0.205981,0.24865 -0.27539,0.40234 -0.06446,0.15371 -0.09856,0.31384 -0.103516,0.48242 v 2.51758 a 0.00232209,0.00232209 0 0 0 0.002,0.002 h 1.113281 c 0.143021,0 0.261824,0.0499 0.355469,0.14844 0.09861,0.0937 0.146485,0.20677 0.146485,0.33985 0,0.14302 -0.04791,0.25987 -0.146485,0.35351 -0.09363,0.0936 -0.212422,0.14063 -0.355469,0.14063 h -1.113281 a 0.00232209,0.00232209 0 0 0 -0.002,0.004 v 3.86719 c 0,0.31157 -0.05906,0.6059 -0.177734,0.88281 -0.113742,0.27694 -0.274732,0.51887 -0.482422,0.72657 -0.202741,0.20768 -0.443758,0.37154 -0.720703,0.49023 -0.271948,0.12361 -0.566307,0.18555 -0.882813,0.18555 -0.133108,0 -0.247079,-0.0469 -0.345703,-0.14063 -0.09363,-0.0936 -0.140625,-0.21242 -0.140625,-0.35547 0,-0.13311 0.04693,-0.24708 0.140625,-0.3457 0.09862,-0.0937 0.212595,-0.14063 0.345703,-0.14063 0.183448,0 0.354967,-0.036 0.513672,-0.10546 0.158672,-0.0694 0.293214,-0.16221 0.402344,-0.28125 0.114059,-0.11902 0.203123,-0.25932 0.267578,-0.41797 0.06446,-0.15868 0.0957,-0.32451 0.0957,-0.49805 v -3.86719 a 0.00232209,0.00232209 0 0 0 -0.002,-0.004 h -0.689453 c -0.138078,0 -0.256859,-0.047 -0.355469,-0.14063 -0.09363,-0.0936 -0.140625,-0.21046 -0.140625,-0.35351 0,-0.13311 0.04696,-0.24619 0.140625,-0.33985 0.09862,-0.0986 0.217419,-0.14843 0.355469,-0.14844 h 0.689453 a 0.00232209,0.00232209 0 0 0 0.002,-0.002 v -2.53125 c 0.0049,-0.30662 0.06686,-0.59431 0.185547,-0.86133 0.123645,-0.27202 0.287479,-0.51013 0.490234,-0.71289 0.207706,-0.20275 0.44674,-0.36177 0.71875,-0.48047 0.271964,-0.11867 0.562533,-0.17968 0.869141,-0.17968 z m -12.734375,0.0117 c -0.134226,0 -0.252191,0.0491 -0.351563,0.14843 -0.09447,0.0945 -0.140625,0.21336 -0.140625,0.35742 v 8.78516 c 10e-7,0.12428 0.04252,0.23749 0.126954,0.3418 0.08453,0.0994 0.191014,0.15039 0.320312,0.15039 h 5.041016 c 0.1391,0 0.257096,-0.0453 0.351562,-0.13477 0.09448,-0.0945 0.142578,-0.21623 0.142578,-0.36523 0,-0.1342 -0.04814,-0.24931 -0.142578,-0.34375 -0.09446,-0.0945 -0.212434,-0.14258 -0.351562,-0.14258 l -4.488282,-0.006 v -8.28516 c 0,-0.14408 -0.05096,-0.26296 -0.15039,-0.35742 -0.09939,-0.0994 -0.218265,-0.14843 -0.357422,-0.14843 z m 0,0.004 c 0.138051,0 0.256849,0.0498 0.355469,0.14844 0.09858,0.0936 0.146484,0.2105 0.146484,0.35351 v 8.28711 a 0.00232209,0.00232209 0 0 0 0.002,0.002 l 4.492188,0.008 c 0.138078,0 0.254007,0.047 0.347656,0.14062 0.09366,0.0937 0.140625,0.20674 0.140625,0.33985 0,0.14802 -0.047,0.26771 -0.140625,0.36133 -0.09364,0.0887 -0.209551,0.13281 -0.347656,0.13281 H 52.28325 c -0.128108,0 -0.232633,-0.0479 -0.316406,-0.14649 -0.08387,-0.1036 -0.126953,-0.21661 -0.126953,-0.33984 v -8.78516 c 0,-0.14304 0.04699,-0.25988 0.140625,-0.35351 0.09863,-0.0986 0.214576,-0.14844 0.347656,-0.14844 z m 7.283203,0.41211 c -0.168828,0 -0.309571,0.0557 -0.423828,0.16992 -0.114258,0.11426 -0.171875,0.25696 -0.171875,0.42578 0,0.1639 0.05765,0.30464 0.171875,0.42383 0.114257,0.11426 0.255,0.17188 0.423828,0.17188 0.168828,0 0.311524,-0.0576 0.425781,-0.17188 0.11918,-0.11918 0.177735,-0.25991 0.177735,-0.42383 0,-0.16884 -0.05852,-0.31153 -0.177735,-0.42578 -0.114257,-0.11425 -0.256953,-0.16992 -0.425781,-0.16992 z m 0,0.004 c 0.16778,0 0.308426,0.0565 0.421875,0.16992 0.118391,0.11346 0.177734,0.25412 0.177734,0.42187 10e-7,0.16279 -0.05931,0.30345 -0.177734,0.42188 -0.113449,0.11345 -0.254095,0.16992 -0.421875,0.16992 -0.167112,0 -0.306712,-0.0574 -0.419922,-0.16992 -0.113485,-0.11842 -0.171875,-0.25906 -0.171875,-0.42188 0,-0.16777 0.05647,-0.30842 0.169922,-0.42187 0.113448,-0.11345 0.254094,-0.16992 0.421875,-0.16992 z m 7.441406,0.0547 c -0.134227,0 -0.252191,0.0491 -0.351562,0.14844 -0.09939,0.0994 -0.148438,0.22022 -0.148438,0.35938 v 5.33789 c 0,0.5052 0.09302,0.97619 0.28125,1.41211 0.193167,0.43091 0.454336,0.80695 0.78125,1.1289 0.331868,0.31702 0.717395,0.56675 1.158203,0.75 0.445793,0.17832 0.922549,0.26758 1.427735,0.26758 0.460611,0 0.88887,-0.074 1.285156,-0.22265 0.40124,-0.15356 0.758239,-0.37857 1.070313,-0.67579 0.05965,-0.0547 0.102987,-0.11879 0.132812,-0.19336 0.03478,-0.0745 0.05273,-0.15 0.05273,-0.2246 0,-0.12925 -0.04527,-0.23863 -0.134765,-0.32813 -0.08944,-0.0944 -0.192148,-0.14258 -0.306641,-0.14258 -0.08447,0 -0.155031,0.0178 -0.214844,0.0527 -0.05956,0.0298 -0.117297,0.0667 -0.171875,0.11132 -0.252262,0.22259 -0.518933,0.38354 -0.800781,0.48243 -0.281893,0.0989 -0.585635,0.14843 -0.912109,0.14843 -0.370991,0 -0.71759,-0.0648 -1.039063,-0.19336 v 0.002 c -0.316564,-0.13355 -0.594633,-0.31546 -0.832031,-0.54297 -0.237396,-0.23245 -0.42401,-0.5048 -0.5625,-0.81641 -0.133526,-0.31156 -0.201172,-0.64674 -0.201172,-1.00781 v -2.66406 h 3.273438 c 0.144061,0 0.262951,-0.0462 0.357422,-0.14063 0.09939,-0.0944 0.148437,-0.20664 0.148437,-0.33593 0,-0.13916 -0.04905,-0.26 -0.148437,-0.35938 -0.09939,-0.0994 -0.218266,-0.14844 -0.357422,-0.14844 h -3.273438 v -1.69726 c 0,-0.14412 -0.05186,-0.26493 -0.15625,-0.35938 -0.09938,-0.0994 -0.218266,-0.14843 -0.357422,-0.14844 z m 0,0.004 c 0.138051,0 0.254897,0.0498 0.353516,0.14844 0.103517,0.0937 0.15625,0.21247 0.15625,0.35547 v 1.69922 a 0.00232209,0.00232209 0 0 0 0.002,0.002 h 3.275391 c 0.138051,0 0.254896,0.0498 0.353515,0.14844 0.09862,0.0986 0.148438,0.21741 0.148438,0.35547 0,0.1281 -0.04982,0.23834 -0.148438,0.33203 -0.09364,0.0936 -0.210468,0.14062 -0.353515,0.14062 H 67.5645 a 0.00232209,0.00232209 0 0 0 -0.002,0.002 v 2.66602 c 0,0.36165 0.06739,0.69761 0.201172,1.00977 0.138716,0.31211 0.326638,0.5855 0.564453,0.81836 0.237815,0.2279 0.51498,0.40921 0.832031,0.54296 0.322045,0.12883 0.669488,0.19336 1.041016,0.19336 0.326943,0 0.631641,-0.0493 0.914062,-0.14843 0.282467,-0.0991 0.550085,-0.26145 0.802735,-0.48438 0.05433,-0.0444 0.110684,-0.0817 0.169922,-0.11133 0.05899,-0.0344 0.129055,-0.0508 0.21289,-0.0508 0.113214,0 0.213972,0.0469 0.302735,0.14063 0.08871,0.0887 0.134765,0.19604 0.134765,0.32422 0,0.0739 -0.01821,0.14867 -0.05273,0.22265 -0.02957,0.0739 -0.07366,0.13718 -0.132813,0.19141 -0.311643,0.2968 -0.667678,0.52243 -1.068359,0.67578 -0.395733,0.1484 -0.823091,0.22266 -1.283203,0.22266 -0.50464,0 -0.980551,-0.0895 -1.425781,-0.26758 -0.440314,-0.18305 -0.826755,-0.43339 -1.158204,-0.75 -0.326502,-0.32155 -0.586353,-0.69655 -0.779296,-1.12696 -0.187975,-0.43531 -0.28125,-0.90553 -0.28125,-1.41015 v -5.33789 c 0,-0.13805 0.04982,-0.25685 0.148437,-0.35547 0.09863,-0.0986 0.214576,-0.14844 0.347656,-0.14844 z m -7.441406,2.13477 c -0.139157,0 -0.258036,0.049 -0.357422,0.14843 -0.09943,0.0945 -0.148437,0.21529 -0.148437,0.35938 v 6.19922 c 0,0.13915 0.04905,0.25803 0.148437,0.35742 0.0994,0.0944 0.218293,0.14258 0.357422,0.14258 0.134198,0 0.249309,-0.0481 0.34375,-0.14258 0.09939,-0.0994 0.148438,-0.21827 0.148438,-0.35742 v -6.19922 c 0,-0.14406 -0.04615,-0.2649 -0.140625,-0.35938 -0.08952,-0.0995 -0.207476,-0.14843 -0.351563,-0.14843 z m 0,0.004 c 0.14302,0 0.258969,0.0499 0.347656,0.14844 0.09363,0.0936 0.140625,0.21242 0.140625,0.35547 v 6.19922 c 0,0.13805 -0.04982,0.25684 -0.148437,0.35547 -0.09366,0.0936 -0.206735,0.13867 -0.339844,0.13867 -0.138079,0 -0.254905,-0.045 -0.353516,-0.13867 -0.09862,-0.0986 -0.148437,-0.21742 -0.148437,-0.35547 v -6.19922 c 0,-0.14302 0.04986,-0.26182 0.148437,-0.35547 0.09862,-0.0986 0.215465,-0.14844 0.353516,-0.14844 z"
           id="path5" /><path
           style="color:#000000;-inkscape-font-specification:'Arista Pro Alternate, Light';fill:#000000;stroke:none;stroke-linecap:butt;stroke-linejoin:miter;stroke-opacity:1;-inkscape-stroke:none"
           d="m 51.837834,182.61001 q 0,-0.21533 0.141079,-0.35641 0.148504,-0.1485 0.348984,-0.1485 0.207906,0 0.35641,0.1485 0.148504,0.14108 0.148504,0.35641 v 8.28652 l 4.492243,0.007 q 0.207905,0 0.348984,0.14108 0.141079,0.14108 0.141079,0.34156 0,0.22276 -0.141079,0.36384 -0.141079,0.13365 -0.348984,0.13365 h -5.041708 q -0.193055,0 -0.319283,-0.1485 -0.126229,-0.15593 -0.126229,-0.34156 z m 7.180163,0.50491 q 0,-0.25245 0.17078,-0.42323 0.170779,-0.17078 0.423236,-0.17078 0.252456,0 0.423236,0.17078 0.178205,0.17078 0.178205,0.42323 0,0.24503 -0.178205,0.42324 -0.17078,0.17078 -0.423236,0.17078 -0.252457,0 -0.423236,-0.17078 -0.17078,-0.17821 -0.17078,-0.42324 z m 0.0891,2.10876 q 0,-0.21533 0.148504,-0.35641 0.148504,-0.1485 0.35641,-0.1485 0.21533,0 0.348984,0.1485 0.141079,0.14108 0.141079,0.35641 v 6.20004 q 0,0.2079 -0.148504,0.35641 -0.141079,0.14107 -0.341559,0.14107 -0.207906,0 -0.35641,-0.14107 -0.148504,-0.14851 -0.148504,-0.35641 z m 2.413191,8.77658 q -0.20048,0 -0.348984,-0.14108 -0.141079,-0.14108 -0.141079,-0.35641 0,-0.20048 0.141079,-0.34898 0.148504,-0.14108 0.348984,-0.14108 0.274732,0 0.512338,-0.10395 0.237607,-0.10396 0.400961,-0.28216 0.17078,-0.17821 0.267307,-0.41581 0.09653,-0.23761 0.09653,-0.49749 v -3.86853 H 62.10688 q -0.207905,0 -0.356409,-0.14108 -0.141079,-0.14107 -0.141079,-0.35641 0,-0.20048 0.141079,-0.34155 0.148504,-0.14851 0.356409,-0.14851 h 0.690544 v -2.53199 q 0.0074,-0.46036 0.18563,-0.86132 0.185629,-0.40839 0.490062,-0.71282 0.311859,-0.30443 0.720244,-0.48264 0.408386,-0.1782 0.868748,-0.1782 0.215331,0 0.35641,0.1485 0.148504,0.14108 0.148504,0.35641 0,0.20048 -0.148504,0.34898 -0.141079,0.14108 -0.35641,0.14108 -0.267307,0 -0.497488,0.10396 -0.230181,0.0965 -0.40096,0.2673 -0.17078,0.17078 -0.274733,0.40096 -0.09653,0.23018 -0.103952,0.48264 v 2.51714 h 1.113779 q 0.215331,0 0.356409,0.14851 0.148504,0.14107 0.148504,0.34155 0,0.21534 -0.148504,0.35641 -0.141078,0.14108 -0.356409,0.14108 h -1.113779 v 3.86853 q 0,0.46779 -0.178205,0.8836 -0.17078,0.41581 -0.482638,0.72767 -0.304433,0.31186 -0.720244,0.49006 -0.408385,0.18563 -0.883598,0.18563 z m 5.034281,-10.91504 q 0,-0.2079 0.148504,-0.35641 0.148503,-0.1485 0.348984,-0.1485 0.207905,0 0.356409,0.1485 0.155929,0.14108 0.155929,0.35641 v 1.70037 h 3.274511 q 0.207906,0 0.35641,0.14851 0.148504,0.1485 0.148504,0.35641 0,0.19305 -0.148504,0.33413 -0.141079,0.14108 -0.35641,0.14108 h -3.274511 v 2.66564 q 0,0.54204 0.200481,1.00983 0.207905,0.46779 0.564314,0.81677 0.35641,0.34156 0.831622,0.54204 0.482638,0.19306 1.039528,0.19306 0.490063,0 0.913299,-0.14851 0.423236,-0.1485 0.801921,-0.48264 0.08168,-0.0668 0.170779,-0.11137 0.0891,-0.052 0.215331,-0.052 0.17078,0 0.304433,0.14108 0.133654,0.13365 0.133654,0.32671 0,0.11137 -0.05198,0.22275 -0.04455,0.11138 -0.133653,0.19306 -0.467788,0.44551 -1.069229,0.67569 -0.594015,0.22276 -1.284558,0.22276 -0.75737,0 -1.425638,-0.26731 -0.660842,-0.27473 -1.15833,-0.74995 -0.490063,-0.48263 -0.779646,-1.12862 -0.282157,-0.65342 -0.282157,-1.41079 z"
           id="path6" /></g></g><g
       id="text452"
       style="opacity:0.99"
       transform="matrix(0.79794582,-0.60751468,0.58144439,0.81053623,-63.222818,-35.171333)"><path
         style="color:#000000;-inkscape-font-specification:'Arista Pro Alternate, Thin';fill:#1a1a1a;fill-opacity:0.921053;stroke-linecap:round;stroke-linejoin:round;-inkscape-stroke:none;paint-order:markers stroke fill"
         d="m 35.150391,138.33203 c -0.199755,0 -0.361933,0.0712 -0.482422,0.21094 -0.120785,0.12079 -0.181641,0.28229 -0.181641,0.48242 v 25.16016 c 0,1.60704 0.287985,3.21344 0.863281,4.82031 0.595177,1.60698 1.457058,3.05616 2.587891,4.3457 1.130939,1.26983 2.521415,2.31165 4.167969,3.125 1.646997,0.79374 3.531715,1.18946 5.654297,1.18946 1.50758,0 2.896164,-0.18747 4.166015,-0.56446 1.28941,-0.39674 2.460188,-0.92339 3.511719,-1.57812 1.051508,-0.67455 1.973933,-1.46817 2.767578,-2.38086 0.813365,-0.91256 1.487754,-1.88433 2.023438,-2.91602 0.555482,-1.05145 0.972247,-2.14258 1.25,-3.27344 0.277737,-1.13079 0.416015,-2.25223 0.416015,-3.36328 v -24.56445 c 0,-0.20075 -0.07964,-0.36197 -0.240234,-0.48242 -0.140037,-0.14003 -0.291802,-0.21094 -0.453125,-0.21094 -0.180234,0 -0.340608,0.0717 -0.480469,0.21094 -0.140723,0.12062 -0.212891,0.28198 -0.212891,0.48242 v 24.35742 c 0,1.80308 -0.326672,3.49707 -0.980468,5.08203 -0.653841,1.56526 -1.554032,2.93071 -2.703125,4.09961 -1.129251,1.16888 -2.46826,2.09003 -4.013672,2.76367 -1.545244,0.67357 -3.218442,1.01172 -5.021485,1.01172 -1.723719,0 -3.319241,-0.32675 -4.785156,-0.98047 -1.44631,-0.65381 -2.703632,-1.5351 -3.773437,-2.64453 -1.069815,-1.12924 -1.901715,-2.43788 -2.496094,-3.92382 -0.594347,-1.48587 -0.890625,-3.0603 -0.890625,-4.72461 v -25.04102 c 0,-0.20044 -0.07217,-0.3618 -0.212891,-0.48242 -0.139861,-0.13924 -0.300235,-0.21094 -0.480468,-0.21094 z m 0,0.0195 c 0.176026,0 0.331374,0.0677 0.46875,0.20508 0.136846,0.1173 0.205078,0.27265 0.205078,0.46875 v 25.04102 c 0,1.66652 0.297342,3.24433 0.892578,4.73242 0.595204,1.48801 1.428566,2.79678 2.5,3.92773 1.071445,1.11113 2.33291,1.99371 3.78125,2.64844 1.468391,0.65482 3.064945,0.98242 4.791015,0.98242 1.805359,0 3.481625,-0.33709 5.029297,-1.01172 1.547504,-0.67455 2.886622,-1.59693 4.017578,-2.76758 1.150767,-1.1706 2.054285,-2.5401 2.708985,-4.10742 0.654745,-1.58726 0.982422,-3.28257 0.982422,-5.08789 v -24.35742 c 0,-0.1961 0.06823,-0.35145 0.205078,-0.46875 0.137375,-0.13737 0.292724,-0.20508 0.46875,-0.20508 0.155899,0 0.301921,0.0675 0.439453,0.20508 a 0.00930058,0.00930058 0 0 0 0.002,0 c 0.156627,0.11747 0.234375,0.27296 0.234375,0.46875 v 24.56445 c 0,1.1095 -0.138615,2.22996 -0.416016,3.35938 -0.277386,1.12936 -0.693252,2.21938 -1.248046,3.26953 -0.534943,1.03026 -1.209087,2.00064 -2.021485,2.91211 -0.792465,0.91133 -1.713583,1.70331 -2.763672,2.37695 -1.050065,0.65382 -2.219792,1.17986 -3.507812,1.57617 -1.267925,0.37642 -2.654126,0.56446 -4.160156,0.56446 -2.120264,0 -4.002303,-0.39707 -5.646485,-1.18946 -1.644624,-0.8124 -3.030887,-1.85118 -4.160156,-3.11914 -1.129374,-1.28788 -1.991531,-2.73494 -2.585938,-4.33984 -0.574633,-1.60501 -0.863281,-3.20963 -0.863281,-4.81445 v -25.16016 c 0,-0.19641 0.05865,-0.35162 0.175781,-0.46875 a 0.00930058,0.00930058 0 0 0 0.002,0 c 0.117297,-0.13684 0.272656,-0.20508 0.46875,-0.20508 z"
         id="path7" /><path
         style="color:#000000;-inkscape-font-specification:'Arista Pro Alternate, Thin';fill:#ffffff;stroke-linecap:round;stroke-linejoin:round;-inkscape-stroke:none;paint-order:markers stroke fill"
         d="m 34.495511,139.02557 q 0,-0.2974 0.178437,-0.47584 0.178438,-0.20817 0.475834,-0.20817 0.267656,0 0.475834,0.20817 0.208177,0.17844 0.208177,0.47584 v 25.04074 q 0,2.49813 0.892188,4.7286 0.892188,2.23047 2.498126,3.92562 1.605939,1.66542 3.776929,2.64683 2.200731,0.9814 4.788076,0.9814 2.706303,0 5.025992,-1.01114 2.319689,-1.01115 4.014846,-2.76579 1.724897,-1.75463 2.706304,-4.10406 0.981407,-2.37917 0.981407,-5.08547 v -24.35673 q 0,-0.2974 0.208177,-0.47584 0.208177,-0.20817 0.475833,-0.20817 0.237917,0 0.446094,0.20817 0.237917,0.17844 0.237917,0.47584 v 24.56491 q 0,1.66541 -0.416354,3.36057 -0.416355,1.69516 -1.249063,3.27136 -0.80297,1.54646 -2.022293,2.91448 -1.189584,1.36802 -2.765783,2.37916 -1.576199,0.98141 -3.509273,1.5762 -1.903334,0.56506 -4.163544,0.56506 -3.182137,0 -5.650524,-1.18959 -2.468386,-1.21932 -4.163544,-3.12266 -1.695157,-1.93307 -2.587345,-4.34198 -0.862448,-2.40891 -0.862448,-4.81781 z"
         id="path8" /></g><g
       id="text453"
       style="opacity:0.99"
       transform="matrix(0.8177166,-0.62256711,0.5673862,0.79093907,-63.222818,-35.171333)"><path
         style="color:#000000;-inkscape-font-specification:'Arista Pro Alternate, Thin';fill:#1a1a1a;fill-opacity:0.921053;stroke-linecap:round;stroke-linejoin:round;-inkscape-stroke:none;paint-order:markers stroke fill"
         d="m 36.076172,146.73437 c -0.168274,0 -0.303031,0.0596 -0.404297,0.17774 -0.101405,0.10141 -0.152344,0.23628 -0.152344,0.4043 v 21.12304 c 0,1.3492 0.24162,2.69784 0.72461,4.04688 0.499679,1.34914 1.224439,2.56581 2.173828,3.64844 0.949477,1.06608 2.115685,1.94018 3.498047,2.62304 1.382733,0.66638 2.966037,1 4.748046,1 1.265687,0 2.431946,-0.15811 3.498047,-0.47461 1.082521,-0.33308 2.064455,-0.77454 2.947266,-1.32422 0.882791,-0.56631 1.657915,-1.23375 2.324219,-2 0.682859,-0.76613 1.249487,-1.58111 1.699218,-2.44726 0.466355,-0.88274 0.815642,-1.79864 1.048829,-2.74805 0.233173,-0.94935 0.349609,-1.89143 0.349609,-2.82422 v -20.62304 c 0,-0.16789 -0.06933,-0.3033 -0.203125,-0.4043 -0.117568,-0.11757 -0.243468,-0.17773 -0.378906,-0.17774 -0.150951,0 -0.287075,0.0594 -0.404297,0.17579 -0.118143,0.10126 -0.177735,0.23797 -0.177735,0.40625 v 20.44921 c 0,1.51377 -0.275324,2.93498 -0.824218,4.26563 -0.548931,1.31411 -1.304813,2.46201 -2.269532,3.44336 -0.94806,0.98132 -2.071692,1.75476 -3.36914,2.32031 -1.297306,0.56549 -2.703056,0.84766 -4.216797,0.84766 -1.447145,0 -2.78492,-0.27344 -4.015625,-0.82227 -1.214247,-0.54891 -2.269816,-1.28928 -3.167969,-2.2207 -0.898161,-0.94806 -1.596693,-2.04545 -2.095703,-3.29297 -0.498983,-1.24746 -0.75,-2.56953 -0.75,-3.9668 v -21.02343 c 0,-0.1676 -0.05859,-0.30316 -0.175781,-0.4043 -0.1177,-0.1177 -0.254419,-0.17773 -0.40625,-0.17774 z m 0,0.0156 c 0.147783,0 0.279198,0.0565 0.394531,0.17187 0.114889,0.0985 0.171875,0.2299 0.171875,0.39454 v 21.02343 c 0,1.39913 0.250271,2.72333 0.75,3.97266 0.499703,1.24925 1.20009,2.34738 2.099609,3.29687 0.89953,0.93285 1.957877,1.67494 3.173829,2.22461 1.232784,0.54975 2.572365,0.82422 4.021484,0.82422 1.515686,0 2.923311,-0.28323 4.222656,-0.84961 1.299204,-0.56632 2.425508,-1.33946 3.375,-2.32226 0.966124,-0.98278 1.723786,-2.13339 2.273438,-3.44922 0.54969,-1.33258 0.824218,-2.75583 0.824218,-4.27149 v -20.44921 c 0,-0.16464 0.05699,-0.29606 0.171875,-0.39454 0.115334,-0.11533 0.246749,-0.17187 0.394532,-0.17187 0.130884,0 0.253675,0.0564 0.36914,0.17187 a 0.00780833,0.00780833 0 0 0 0,0.002 c 0.131496,0.0986 0.197266,0.22821 0.197266,0.39258 v 20.62304 c 0,0.93148 -0.116718,1.87212 -0.349609,2.82032 -0.23288,0.94815 -0.583052,1.86249 -1.048829,2.74414 -0.449109,0.86495 -1.013265,1.68008 -1.695312,2.44531 -0.665313,0.76511 -1.438713,1.43054 -2.320313,1.99609 -0.88158,0.54891 -1.863958,0.98954 -2.945312,1.32227 -1.064485,0.31602 -2.227803,0.47461 -3.492188,0.47461 -1.780063,0 -3.359865,-0.33281 -4.740234,-0.99805 -1.380741,-0.68206 -2.546065,-1.55659 -3.494141,-2.62109 -0.947611,-1.08091 -1.671086,-2.29572 -2.169921,-3.64258 -0.482433,-1.34748 -0.72461,-2.69368 -0.72461,-4.04102 v -21.12304 c 0,-0.1649 0.0501,-0.2962 0.148438,-0.39454 0.09848,-0.11488 0.227948,-0.17187 0.392578,-0.17187 z"
         id="path9" /><path
         style="color:#000000;-inkscape-font-specification:'Arista Pro Alternate, Thin';fill:#000000;stroke-linecap:round;stroke-linejoin:round;-inkscape-stroke:none;paint-order:markers stroke fill"
         d="m 35.527793,147.31633 q 0,-0.24968 0.149807,-0.39949 0.149807,-0.17477 0.399485,-0.17477 0.224711,0 0.399486,0.17477 0.174774,0.14981 0.174774,0.39949 v 21.0229 q 0,2.0973 0.749035,3.96989 0.749035,1.87258 2.097297,3.29575 1.348263,1.3982 3.170914,2.22214 1.847619,0.82393 4.019819,0.82393 2.272072,0 4.219562,-0.8489 1.947491,-0.84891 3.370657,-2.32201 1.448133,-1.4731 2.272071,-3.44556 0.823939,-1.99743 0.823939,-4.2695 v -20.44864 q 0,-0.24968 0.174774,-0.39949 0.174775,-0.17477 0.399486,-0.17477 0.199742,0 0.374517,0.17477 0.199742,0.14981 0.199742,0.39949 v 20.62342 q 0,1.3982 -0.349549,2.82136 -0.34955,1.42317 -1.048649,2.74646 -0.674131,1.29833 -1.697812,2.44685 -0.998713,1.14852 -2.322007,1.99742 -1.323295,0.82394 -2.946203,1.3233 -1.597941,0.47439 -3.495496,0.47439 -2.671557,0 -4.743886,-0.99871 -2.072329,-1.02369 -3.495495,-2.62163 -1.423166,-1.6229 -2.172201,-3.6453 -0.724067,-2.02239 -0.724067,-4.04479 z"
         id="path10" /></g><g
       id="text454"
       style="opacity:0.99"
       transform="matrix(0.83405302,-0.63500485,0.55627291,0.7754471,-63.222818,-35.171333)"><path
         style="color:#000000;-inkscape-font-specification:'Arista Pro Alternate, Thin';fill:#1a1a1a;fill-opacity:0.921053;stroke-linecap:round;stroke-linejoin:round;-inkscape-stroke:none;paint-order:markers stroke fill"
         d="m 36.822266,153.41602 c -0.142665,0 -0.257897,0.0502 -0.34375,0.15039 -0.08597,0.086 -0.128907,0.2013 -0.128907,0.34375 v 17.9082 c 0,1.14386 0.205752,2.28792 0.615235,3.43164 0.423633,1.14381 1.036896,2.17393 1.841797,3.0918 0.804976,0.90383 1.794816,1.64568 2.966796,2.22461 1.172295,0.56496 2.512633,0.84765 4.023438,0.84765 1.073061,0 2.062946,-0.13401 2.966797,-0.40234 0.917772,-0.28239 1.749591,-0.65703 2.498047,-1.12305 0.748439,-0.48013 1.405805,-1.04567 1.970703,-1.69531 0.578935,-0.64953 1.058166,-1.33989 1.439453,-2.07422 0.39538,-0.7484 0.692927,-1.52516 0.890625,-2.33008 0.197688,-0.80486 0.296875,-1.6037 0.296875,-2.39453 v -17.48437 c 0,-0.14289 -0.05757,-0.25802 -0.171875,-0.34375 -0.09967,-0.0997 -0.207439,-0.15039 -0.322266,-0.15039 -0.128723,0 -0.243963,0.0506 -0.34375,0.15039 -0.100163,0.0859 -0.15039,0.20108 -0.15039,0.34375 v 17.33593 c 0,1.28339 -0.231908,2.48905 -0.697266,3.61719 -0.465389,1.11411 -1.107883,2.08792 -1.925781,2.91992 -0.803776,0.83198 -1.75548,1.48732 -2.855469,1.9668 -1.099869,0.47943 -2.290854,0.71875 -3.574219,0.71875 -1.226903,0 -2.360892,-0.23197 -3.404297,-0.69727 -1.029451,-0.46536 -1.926037,-1.09314 -2.6875,-1.88281 -0.761469,-0.80377 -1.352324,-1.73335 -1.77539,-2.79101 -0.423043,-1.05761 -0.634766,-2.17867 -0.634766,-3.36329 v -17.82421 c 0,-0.14267 -0.05023,-0.2579 -0.15039,-0.34375 -0.09979,-0.0998 -0.215026,-0.15039 -0.34375,-0.15039 z m 0,0.0137 c 0.125291,0 0.236203,0.0487 0.333984,0.14648 0.0974,0.0835 0.146484,0.19441 0.146484,0.33399 v 17.82421 c 0,1.1862 0.211091,2.308 0.634766,3.36719 0.423653,1.05914 1.016675,1.99189 1.779297,2.79688 0.762629,0.79088 1.66051,1.41874 2.691406,1.88476 1.045167,0.46609 2.181579,0.69922 3.410156,0.69922 1.285013,0 2.478481,-0.24052 3.580078,-0.7207 1.101478,-0.48013 2.054386,-1.13552 2.859375,-1.96875 0.81909,-0.83321 1.461734,-1.80825 1.927735,-2.92383 0.466032,-1.12978 0.699219,-2.33806 0.699219,-3.62305 v -17.33593 c 0,-0.13958 0.04908,-0.2505 0.146484,-0.33399 0.09778,-0.0978 0.208693,-0.14648 0.333984,-0.14648 0.110966,0 0.214608,0.0486 0.3125,0.14648 a 0.00661996,0.00661996 0 0 0 0.002,0 c 0.111484,0.0836 0.166016,0.19463 0.166016,0.33399 v 17.48437 c 0,0.78972 -0.09943,1.58673 -0.296875,2.39063 -0.197437,0.80385 -0.493782,1.5787 -0.888672,2.32617 -0.380759,0.73332 -0.859253,1.42546 -1.4375,2.07422 -0.564058,0.64867 -1.219367,1.21192 -1.966797,1.6914 -0.747412,0.46537 -1.57931,0.83901 -2.496093,1.1211 -0.902481,0.26792 -1.890933,0.40234 -2.962891,0.40234 -1.509156,0 -2.847287,-0.28171 -4.017578,-0.8457 -1.170607,-0.57825 -2.159103,-1.31821 -2.962891,-2.22071 -0.803863,-0.91668 -1.416759,-1.94555 -1.839844,-3.08789 -0.40901,-1.1424 -0.613281,-2.28545 -0.613281,-3.42773 v -17.9082 c 0,-0.1398 0.04163,-0.25062 0.125,-0.33399 0.08349,-0.0974 0.194409,-0.14648 0.333985,-0.14648 z"
         id="path11" /><path
         style="color:#000000;-inkscape-font-specification:'Arista Pro Alternate, Thin';fill:#ffffff;stroke-linecap:round;stroke-linejoin:round;-inkscape-stroke:none;paint-order:markers stroke fill"
         d="m 36.356564,153.91012 q 0,-0.21168 0.127008,-0.33869 0.127007,-0.14817 0.338687,-0.14817 0.190512,0 0.338688,0.14817 0.148175,0.12701 0.148175,0.33869 v 17.82343 q 0,1.77811 0.635039,3.36571 0.63504,1.5876 1.77811,2.79417 1.14307,1.18541 2.688332,1.88395 1.56643,0.69854 3.408043,0.69854 1.926285,0 3.577387,-0.71971 1.651101,-0.71971 2.857676,-1.96862 1.227742,-1.24891 1.926285,-2.92118 0.698543,-1.69344 0.698543,-3.61972 v -17.33657 q 0,-0.21168 0.148176,-0.33869 0.148176,-0.14817 0.338687,-0.14817 0.169344,0 0.31752,0.14817 0.169344,0.12701 0.169344,0.33869 v 17.48474 q 0,1.18541 -0.296352,2.39198 -0.296352,1.20658 -0.889055,2.32848 -0.571535,1.10074 -1.439422,2.07446 -0.846718,0.97373 -1.968621,1.69344 -1.121902,0.69854 -2.49782,1.1219 -1.35475,0.40219 -2.963516,0.40219 -2.264973,0 -4.021914,-0.84672 -1.756942,-0.86788 -2.963516,-2.22263 -1.206574,-1.37592 -1.841613,-3.09053 -0.613871,-1.7146 -0.613871,-3.42921 z"
         id="path12" /></g><g
       id="text455"
       style="opacity:0.99"
       transform="matrix(0.85399756,-0.65018958,0.54328154,0.75733706,-63.222818,-35.171333)"><path
         style="color:#000000;-inkscape-font-specification:'Arista Pro Alternate, Thin';fill:#1a1a1a;fill-opacity:0.921053;stroke-linecap:round;stroke-linejoin:round;-inkscape-stroke:none;paint-order:markers stroke fill"
         d="m 37.226562,160.35352 c -0.119899,0 -0.216908,0.0428 -0.289062,0.12695 -0.07225,0.0722 -0.107422,0.16935 -0.107422,0.28906 v 15.05078 c 0,0.96134 0.171482,1.92159 0.515625,2.88281 0.356036,0.9613 0.872362,1.8282 1.548828,2.59961 0.67653,0.75962 1.507216,1.38259 2.492188,1.86914 0.985236,0.47482 2.11308,0.7129 3.382812,0.7129 0.901837,0 1.732561,-0.11238 2.492188,-0.3379 0.771327,-0.23733 1.472535,-0.5517 2.101562,-0.94335 0.629014,-0.40352 1.179537,-0.87981 1.654297,-1.42579 0.486557,-0.54589 0.890491,-1.12698 1.210938,-1.74414 0.332291,-0.62897 0.581894,-1.28055 0.748046,-1.95703 0.166144,-0.67643 0.25,-1.34708 0.25,-2.01172 v -14.69531 c 0,-0.12008 -0.04846,-0.21701 -0.144531,-0.28906 -0.08377,-0.0838 -0.17498,-0.12695 -0.271484,-0.12695 -0.107571,0 -0.203578,0.044 -0.28711,0.12695 -0.08418,0.0721 -0.126953,0.16916 -0.126953,0.28906 v 14.57031 c 0,1.0786 -0.196788,2.09093 -0.58789,3.03907 -0.391129,0.93633 -0.929798,1.75388 -1.617188,2.45312 -0.67552,0.69922 -1.475922,1.25132 -2.40039,1.6543 -0.924368,0.40293 -1.925323,0.60351 -3.003907,0.60351 -1.031132,0 -1.984415,-0.19488 -2.861328,-0.58593 -0.865186,-0.39112 -1.617853,-0.91838 -2.257812,-1.58204 -0.639966,-0.67552 -1.138582,-1.45876 -1.494141,-2.34765 -0.355539,-0.88885 -0.533203,-1.83058 -0.533203,-2.82617 v -14.97852 c 0,-0.1199 -0.04082,-0.21691 -0.125,-0.28906 -0.08386,-0.0839 -0.180878,-0.12695 -0.289063,-0.12695 z m 0,0.0117 c 0.1053,0 0.199072,0.0409 0.28125,0.12305 0.08186,0.0702 0.123047,0.16395 0.123047,0.28125 v 14.97852 c 0,0.99692 0.177133,1.94185 0.533203,2.83203 0.356053,0.89013 0.855161,1.67306 1.496094,2.34961 0.64094,0.66467 1.395319,1.19232 2.261719,1.58398 0.878394,0.39172 1.832695,0.58789 2.865234,0.58789 1.079969,0 2.083946,-0.2019 3.009766,-0.60547 0.925719,-0.40352 1.725804,-0.95597 2.402344,-1.65625 0.688391,-0.70026 1.229451,-1.51946 1.621093,-2.45703 0.39167,-0.9495 0.587891,-1.96302 0.587891,-3.04297 v -14.57031 c 0,-0.1173 0.03923,-0.21108 0.121094,-0.28125 0.08218,-0.0822 0.17595,-0.12305 0.28125,-0.12305 0.09326,0 0.1814,0.0408 0.263672,0.12305 0.0937,0.0703 0.140625,0.16413 0.140625,0.28125 v 14.69531 c 0,0.66371 -0.08406,1.3322 -0.25,2.00782 -0.165933,0.67558 -0.414215,1.32688 -0.746094,1.95507 -0.320003,0.61631 -0.723006,1.1989 -1.208984,1.74414 -0.474054,0.54517 -1.024179,1.01891 -1.652344,1.42188 -0.628151,0.39111 -1.329113,0.70433 -2.09961,0.94141 -0.758475,0.22517 -1.587371,0.33789 -2.488281,0.33789 -1.268346,0 -2.393401,-0.23694 -3.376953,-0.71094 -0.983818,-0.48598 -1.814704,-1.1087 -2.490234,-1.86719 -0.675594,-0.77041 -1.1913,-1.63565 -1.546875,-2.5957 -0.343747,-0.96012 -0.515625,-1.9189 -0.515625,-2.87891 v -15.05078 c 0,-0.11749 0.0354,-0.21118 0.105468,-0.28125 0.07017,-0.0819 0.163947,-0.12305 0.28125,-0.12305 z"
         id="path13" /><path
         style="color:#000000;-inkscape-font-specification:'Arista Pro Alternate, Thin';fill:#000000;stroke-linecap:round;stroke-linejoin:round;-inkscape-stroke:none;paint-order:markers stroke fill"
         d="m 36.835245,160.76918 q 0,-0.1779 0.106742,-0.28464 0.106741,-0.12453 0.284644,-0.12453 0.160113,0 0.284645,0.12453 0.124532,0.10674 0.124532,0.28464 v 14.97942 q 0,1.49439 0.533708,2.82866 0.533709,1.33427 1.494384,2.34832 0.960675,0.99625 2.259366,1.58333 1.316481,0.58708 2.864236,0.58708 1.618916,0 3.006558,-0.60487 1.387642,-0.60487 2.401688,-1.65449 1.031837,-1.04963 1.618916,-2.45506 0.587079,-1.42323 0.587079,-3.04214 v -14.57025 q 0,-0.1779 0.124532,-0.28464 0.124532,-0.12453 0.284645,-0.12453 0.142322,0 0.266854,0.12453 0.142323,0.10674 0.142323,0.28464 v 14.69478 q 0,0.99626 -0.249064,2.0103 -0.249064,1.01405 -0.747192,1.95693 -0.480338,0.9251 -1.20974,1.74345 -0.711611,0.81835 -1.654496,1.42322 -0.942885,0.58708 -2.099254,0.94289 -1.138578,0.33801 -2.490639,0.33801 -1.903561,0 -3.380154,-0.71161 -1.476594,-0.7294 -2.49064,-1.86798 -1.014046,-1.15637 -1.547755,-2.59738 -0.515918,-1.44101 -0.515918,-2.88202 z"
         id="path14" /></g><g
       id="path455"
       style="opacity:0.99"
       transform="matrix(0.95669501,-0.72837811,0.70511249,0.98293013,-163.68543,34.463613)"><path
         style="color:#000000;fill:#000000;stroke-linecap:round;stroke-linejoin:round;-inkscape-stroke:none;paint-order:markers stroke fill"
         d="m 124.00781,163.77734 a 0.39719301,0.39719301 0 0 0 -0.40039,0.39649 0.39719301,0.39719301 0 0 0 0.39453,0.39844 l 6.875,0.0371 a 0.39719301,0.39719301 0 0 0 0.40039,-0.39453 0.39719301,0.39719301 0 0 0 -0.39648,-0.39843 z"
         id="path15" /><path
         style="color:#000000;fill:#000000;stroke-linecap:round;stroke-linejoin:round;-inkscape-stroke:none;paint-order:markers stroke fill"
         d="m 124.00486,164.17544 6.8747,0.0372"
         id="path16" /></g><g
       id="path456"
       style="opacity:0.99"
       transform="matrix(0.95669501,-0.72837811,0.70511249,0.98293013,-150.06926,24.096968)"><path
         style="color:#000000;fill:#ffffff;fill-opacity:0.921053;stroke-linecap:round;stroke-linejoin:round;-inkscape-stroke:none;paint-order:markers stroke fill"
         d="m 124.00586,163.77734 a 0.39719301,0.39719301 0 0 0 -0.39844,0.39844 0.39719301,0.39719301 0 0 0 0.39649,0.39649 l 13.08007,0.0195 a 0.39719301,0.39719301 0 0 0 0.39844,-0.39649 0.39719301,0.39719301 0 0 0 -0.39648,-0.39844 z"
         id="path17" /><path
         style="color:#000000;fill:#ffffff;stroke-linecap:round;stroke-linejoin:round;-inkscape-stroke:none;paint-order:markers stroke fill"
         d="m 124.00486,164.17544 13.08052,0.0186"
         id="path18" /></g><g
       id="path457"
       style="opacity:0.99"
       transform="matrix(0.95669501,-0.72837811,0.70511249,0.98293013,-132.68864,11.238783)"><path
         style="color:#000000;fill:#000000;stroke-linecap:round;stroke-linejoin:round;-inkscape-stroke:none;paint-order:markers stroke fill"
         d="m 124.00781,163.77734 a 0.39719301,0.39719301 0 0 0 -0.40039,0.39649 0.39719301,0.39719301 0 0 0 0.39453,0.39844 l 6.875,0.0371 a 0.39719301,0.39719301 0 0 0 0.40039,-0.39453 0.39719301,0.39719301 0 0 0 -0.39648,-0.39843 z"
         id="path19" /><path
         style="color:#000000;fill:#ffffff;stroke-linecap:round;stroke-linejoin:round;-inkscape-stroke:none;paint-order:markers stroke fill"
         d="m 124.00486,164.17544 6.8747,0.0372"
         id="path20" /></g></g></svg>
